<?xml version="1.0" encoding="UTF-8"?>
<svg width="36px" height="36px" viewBox="0 0 36 36" version="1.1" xmlns="http://www.w3.org/2000/svg" xmlns:xlink="http://www.w3.org/1999/xlink">
    <title>Group 5</title>
    <defs>
        <filter id="filter-1">
            <feColorMatrix in="SourceGraphic" type="matrix" values="0 0 0 0 1.000000 0 0 0 0 1.000000 0 0 0 0 1.000000 0 0 0 1.000000 0"></feColorMatrix>
        </filter>
    </defs>
    <g id="Alerts" stroke="none" stroke-width="1" fill="none" fill-rule="evenodd">
        <g id="165_Alerts_09-_Filter_Option01a" transform="translate(-466.000000, -167.000000)">
            <g id="Group-5" transform="translate(466.000000, 167.000000)">
                <rect id="Rectangle" x="0" y="0" width="36" height="36"></rect>
                <circle id="Oval" fill="#0957A3" cx="18" cy="18" r="15"></circle>
                <g filter="url(#filter-1)" id="filter_alt-24px">
                    <g transform="translate(7.000000, 7.000000)">
                        <path d="M0,0.46 L22.08,0.46 M22.08,22.54 L0,22.54" id="Shape"></path>
                        <path d="M6.44,5.98 L15.64,5.98 L11.0308,11.776 L6.44,5.98 Z M3.91,5.6212 C5.7684,8.004 9.2,12.42 9.2,12.42 L9.2,17.94 C9.2,18.446 9.614,18.86 10.12,18.86 L11.96,18.86 C12.466,18.86 12.88,18.446 12.88,17.94 L12.88,12.42 C12.88,12.42 16.3024,8.004 18.1608,5.6212 C18.63,5.014 18.1976,4.14 17.434,4.14 L4.6368,4.14 C3.8732,4.14 3.4408,5.014 3.91,5.6212 Z" id="Shape" fill="#000000" fill-rule="nonzero"></path>
                        <polygon id="Path" points="0 0.46 22.08 0.46 22.08 22.54 0 22.54"></polygon>
                    </g>
                </g>
            </g>
        </g>
    </g>
</svg>