<?xml version="1.0" encoding="UTF-8"?>
<svg width="30px" height="30px" viewBox="0 0 30 30" version="1.1" xmlns="http://www.w3.org/2000/svg" xmlns:xlink="http://www.w3.org/1999/xlink">
    <title>Hazmat02 Copy</title>
    <g id="Mobile_Screens" stroke="none" stroke-width="1" fill="none" fill-rule="evenodd">
        <g id="04_Order_Detail_02" transform="translate(-264.000000, -116.000000)">
            <g id="Group-21" transform="translate(16.000000, 81.000000)">
                <g id="Hazmat02-Copy" transform="translate(248.000000, 35.000000)">
                    <rect id="Rectangle" x="0" y="0" width="30" height="30"></rect>
                    <g id="hazmat" transform="translate(4.285714, 4.285714)">
                        <path d="M12.5238207,0.901035863 L21.9683997,19.7676243 C22.3727808,20.5754203 22.0502596,21.560358 21.2480283,21.9675442 C21.0209285,22.0828125 20.7701514,22.1428571 20.5158314,22.1428571 L1.62667353,22.1428571 C0.728286545,22.1428571 0,21.4095188 0,20.5049001 C0,20.248816 0.0596309885,19.9962994 0.174105288,19.7676243 L9.61868422,0.901035863 C10.0230654,0.0932398615 11.0012181,-0.231518566 11.8034494,0.175667612 C12.1145115,0.333552494 12.3670235,0.587816059 12.5238207,0.901035863 Z" id="Triangle" fill="#FFB92D" fill-rule="nonzero"></path>
                        <path d="M11.6145095,2.29191661 L20.2280063,19.4736957 C20.3895444,19.795924 20.2603796,20.188648 19.9395088,20.3508694 C19.8487743,20.3967417 19.7486022,20.4206349 19.6470182,20.4206349 L2.43065186,20.4206349 C2.10733677,20.4206349 1.8452381,20.1574275 1.8452381,19.8327447 C1.8452381,19.7409323 1.86665146,19.6503961 1.90776259,19.5683897 L10.5687309,2.29191661 C10.7141152,2.00191124 11.066078,1.8851712 11.3548617,2.03117046 C11.4670174,2.08787257 11.5580463,2.17928649 11.6145095,2.29191661 Z" id="Triangle-Copy" stroke="#000000" fill="#FFB92D" fill-rule="nonzero"></path>
                        <g id="Hazmat" transform="translate(5.740741, 8.558201)" fill="#000000">
                            <g id="Group" transform="translate(0.687831, 0.013228)">
                                <path d="M4.63667505,4.59835273 L4.63667505,4.14337562 C5.09301384,4.1169018 5.54190018,3.91668527 5.89042676,3.54339119 C6.64138603,2.73986436 6.64138603,1.43626182 5.89042676,0.631803758 C5.63431065,0.35748715 5.32428843,0.177358786 4.99687714,0.0898222549 L5.01389359,0.00680888771 C5.48637937,0.105786364 5.93762566,0.35150061 6.30354131,0.743286453 C7.03574523,1.52699117 7.22006933,2.67520972 6.85713467,3.64303383 C8.09921087,3.80240886 9.06181992,4.93492936 9.06181992,6.30810881 C9.06181992,6.8624625 8.90531832,7.37757108 8.63653303,7.80527617 L8.56958512,7.7599115 C8.74347579,7.45020778 8.84321451,7.0874234 8.84321451,6.69936252 C8.84321451,5.56271795 7.98270412,4.64079065 6.92135001,4.64079065 C6.27609142,4.64079065 5.70473637,4.98149135 5.35620979,5.50418288 L5.00582009,5.28427728 C5.02258812,5.23159572 5.03128266,5.17492313 5.03128266,5.11558986 C5.03128266,4.86043018 4.86223608,4.64717629 4.63667505,4.59835273 L4.63667505,4.59835273 Z M4.90657821,5.46746543 L5.24939124,5.68324697 C5.09003286,5.98297312 4.99923709,6.32979339 4.99923709,6.69949555 C4.99923709,7.83640619 5.85949907,8.75833348 6.92135001,8.75833348 C7.28329101,8.75833348 7.62225361,8.65124092 7.91140895,8.46472691 L7.95413637,8.53629933 C7.55431204,8.82471757 7.07350434,8.99234072 6.55630381,8.99234072 C5.72411276,8.99234072 4.98694054,8.55864909 4.53171961,7.89055112 C4.07550502,8.55864909 3.338457,8.99234072 2.50688699,8.99234072 C1.98956225,8.99234072 1.50850614,8.8240524 1.10905443,8.53629933 L1.15190606,8.46472691 C1.44081299,8.65124092 1.77927875,8.75833348 2.14171659,8.75833348 C3.20319491,8.75833348 4.0637053,7.83640619 4.0637053,6.69949555 C4.0637053,6.33085767 3.97328215,5.9844365 3.81479323,5.68537552 L4.16940598,5.46640116 C4.25958071,5.57548924 4.39161341,5.64466704 4.53842682,5.64466704 C4.6847434,5.64466704 4.81627927,5.57615441 4.90657821,5.46746543 L4.90657821,5.46746543 Z M3.17226721,3.54325815 C3.52402319,3.92014416 3.97874728,4.12049373 4.43968176,4.14377472 L4.43968176,4.59835273 C4.21436914,4.64717629 4.04482574,4.86056322 4.04482574,5.11585593 C4.04482574,5.17465707 4.05376869,5.23079752 4.0702883,5.28347908 L3.7051179,5.50165523 C3.35584607,4.98069314 2.78548468,4.64105672 2.14159238,4.64105672 C1.07998985,4.64105672 0.219355252,5.56298402 0.219355252,6.69962858 C0.219355252,7.0874234 0.319466593,7.45047385 0.493357261,7.76017756 L0.426657769,7.80554224 C0.157499857,7.37783715 0.000749840432,6.86272857 0.000749840432,6.30837488 C0.000749840432,4.93532846 0.96360731,3.80267492 2.20580772,3.6432999 C1.84274884,2.67547579 2.02732137,1.52725724 2.75940108,0.743552522 C3.12544094,0.351766678 3.5764388,0.106052432 4.04892459,0.00707495619 L4.06606524,0.0900883234 C3.73852975,0.177624855 3.42825911,0.357620185 3.17239142,0.632069827 C2.42180477,1.43612879 2.42180477,2.73973133 3.17226721,3.54325815 L3.17226721,3.54325815 Z" id="Shape" fill-rule="nonzero"></path>
                                <path d="M7.04456397,5.1157229 C7.04456397,6.27032708 6.36403042,7.25398227 5.40986748,7.6332629 C5.29907428,7.42785803 5.22355605,7.19810789 5.19262835,6.95265971 C5.88309851,6.67009498 6.37284916,5.95476986 6.37284916,5.1157229 C6.37284916,5.05266466 6.36999238,4.9898725 6.36465146,4.92827765 C6.53953578,4.86482031 6.72659246,4.83089658 6.92135001,4.83089658 C6.95799126,4.83089658 6.9946325,4.83275906 7.03077692,4.83462154 C7.03922304,4.92681427 7.04456397,5.02073645 7.04456397,5.1157229 L7.04456397,5.1157229 Z M4.5381784,2.43202313 C5.11164499,2.43202313 5.64027262,2.63809317 6.06233011,2.9851795 C5.98420352,3.13697158 5.88521004,3.27985035 5.76510127,3.4090266 C5.72200123,3.45492341 5.6775349,3.49789347 5.63170229,3.53806982 C5.32652417,3.29475019 4.94806355,3.15094017 4.5380542,3.15094017 C4.12506386,3.15094017 3.7442433,3.29687873 3.43757468,3.54339119 C3.38913371,3.5018845 3.34255585,3.45678589 3.2977169,3.4090266 C3.17947125,3.28224497 3.08159565,3.14242598 3.00483534,2.99262942 C3.42850753,2.64101992 3.96073718,2.43202313 4.5381784,2.43202313 L4.5381784,2.43202313 Z M2.71145694,4.93306688 C2.7059918,4.99319836 2.70350765,5.05412804 2.70350765,5.1157229 C2.70350765,5.94918242 3.18717212,6.66118169 3.87068665,6.94720531 C3.84025579,7.19252045 3.76573122,7.42306879 3.65531064,7.62887277 C2.70673705,7.24653236 2.03204126,6.26580392 2.03204126,5.1157229 C2.03204126,5.02073645 2.03651273,4.92641517 2.04595251,4.8336903 C2.07750125,4.83182782 2.10904998,4.83089658 2.14159238,4.83089658 C2.34069719,4.83089658 2.53259797,4.86668279 2.71145694,4.93306688 L2.71145694,4.93306688 Z" id="Shape"></path>
                            </g>
                        </g>
                    </g>
                </g>
            </g>
        </g>
    </g>
</svg>