<?xml version="1.0" encoding="UTF-8"?>
<svg width="24px" height="24px" viewBox="0 0 24 24" version="1.1" xmlns="http://www.w3.org/2000/svg" xmlns:xlink="http://www.w3.org/1999/xlink">
    <title>Hazmat02 Copy 5</title>
    <g id="Dashboard---Search-Reporting-Details" stroke="none" stroke-width="1" fill="none" fill-rule="evenodd">
        <g id="Artboard" transform="translate(-1035.000000, -169.000000)">
            <g id="Product-Details-Copy" transform="translate(119.000000, 54.000000)">
                <g id="DataTable-Copy-4" transform="translate(1.000000, 48.000000)">
                    <g id="DocTypeColumn-Copy-6" transform="translate(907.000000, 17.000000)">
                        <g id="Hazmat02-Copy-5" transform="translate(8.000000, 50.000000)">
                            <rect id="Rectangle" x="0" y="0" width="24" height="24"></rect>
                            <g id="hazmat" transform="translate(3.000000, 3.000000)">
                                <path d="M10.1806543,0.732454959 L17.8581829,16.0691656 C18.1869057,16.7258256 17.9247272,17.5264846 17.2725907,17.8574875 C17.0879806,17.9511895 16.8841231,18 16.6773855,18 L1.32232816,18 C0.592026482,18 0,17.4038669 0,16.6684994 C0,16.4603279 0.0484742229,16.2550563 0.14153075,16.0691656 L7.81905943,0.732454959 C8.1477822,0.0757949842 8.94292565,-0.188202189 9.59506206,0.142800768 C9.84792545,0.271145899 10.0531933,0.477837571 10.1806543,0.732454959 Z" id="Triangle" fill="#FFB92D" fill-rule="nonzero"></path>
                                <path d="M9.44147222,1.86310641 L16.4434116,15.8302301 C16.5747264,16.0921705 16.4697279,16.4114171 16.208891,16.5432874 C16.1351326,16.5805771 16.0537025,16.6 15.9711245,16.6 L1.97588474,16.6 C1.71306086,16.6 1.5,16.3860378 1.5,16.1221022 C1.5,16.0474676 1.51740699,15.9738704 1.55082637,15.9072071 L8.59135547,1.86310641 C8.70953883,1.6273601 8.99565047,1.53246175 9.23040372,1.65114502 C9.32157544,1.69723835 9.39557309,1.77154902 9.44147222,1.86310641 Z" id="Triangle-Copy" stroke="#000000" stroke-width="0.5" fill="#FFB92D" fill-rule="nonzero"></path>
                                <g id="Hazmat" transform="translate(4.000000, 6.000000)" fill="#000000">
                                    <g id="Group" transform="translate(0.700000, 0.800000)">
                                        <path d="M4.34904012,4.02555544 L4.34904012,3.6272529 C4.77707006,3.60407682 5.19810985,3.4288004 5.52501567,3.10200598 C6.22938938,2.39857108 6.22938938,1.25735278 5.52501567,0.553102645 C5.28478766,0.312956493 4.99399759,0.155265955 4.68689717,0.0786334778 L4.70285801,0.00596073346 C5.14603326,0.0926090055 5.5692866,0.30771567 5.91250276,0.650698414 C6.5992846,1.33678036 6.77217421,2.3419702 6.43175411,3.18923657 C7.59677843,3.32875892 8.49967228,4.32020615 8.49967228,5.52233446 C8.49967228,6.00763466 8.35287922,6.45857836 8.10076796,6.83300604 L8.03797314,6.79329225 C8.20107655,6.52216701 8.294628,6.20457314 8.294628,5.86485135 C8.294628,4.86979378 7.48749915,4.06270705 6.49198586,4.06270705 C5.88675573,4.06270705 5.35084454,4.36096811 5.02393871,4.81855018 L4.69528535,4.62603728 C4.71101318,4.57991804 4.71916835,4.53030492 4.71916835,4.47836254 C4.71916835,4.25498702 4.56060854,4.06829726 4.34904012,4.02555544 L4.34904012,4.02555544 Z M4.6021999,4.78640646 L4.92374662,4.97530901 C4.774274,5.23769955 4.68911072,5.54131789 4.68911072,5.86496782 C4.68911072,6.86025832 5.49600657,7.66734505 6.49198586,7.66734505 C6.83147395,7.66734505 7.14940909,7.57359255 7.42062675,7.4103118 L7.46070359,7.47296875 C7.08568226,7.72545995 6.63470134,7.87220299 6.14958521,7.87220299 C5.36901892,7.87220299 4.67757698,7.49253449 4.25059556,6.90765865 C3.82268213,7.49253449 3.13135669,7.87220299 2.35137291,7.87220299 C1.86614027,7.87220299 1.41492635,7.72487763 1.04025453,7.47296875 L1.08044787,7.4103118 C1.35143253,7.57359255 1.66890166,7.66734505 2.00885575,7.66734505 C3.00448554,7.66734505 3.8116144,6.86025832 3.8116144,5.86496782 C3.8116144,5.54224959 3.72680063,5.23898064 3.57814352,4.97717242 L3.91075797,4.78547476 C3.99533873,4.8809742 4.11918082,4.94153482 4.25688669,4.94153482 C4.39412656,4.94153482 4.51750264,4.88155651 4.6021999,4.78640646 L4.6021999,4.78640646 Z M2.97547644,3.10188952 C3.30541133,3.43182844 3.73192673,3.60722131 4.16426726,3.62760229 L4.16426726,4.02555544 C3.95293185,4.06829726 3.79390603,4.25510348 3.79390603,4.47859546 C3.79390603,4.53007199 3.8022942,4.57921926 3.81778903,4.62533851 L3.47527187,4.81633738 C3.14766703,4.36026933 2.61268786,4.06293998 2.00873925,4.06293998 C1.01299296,4.06293998 0.205747606,4.8700267 0.205747606,5.86508428 C0.205747606,6.20457314 0.299648566,6.52239993 0.462751972,6.79352517 L0.400190166,6.83323896 C0.147729394,6.45881128 0.000703324277,6.00786759 0.000703324277,5.52256739 C0.000703324277,4.32055554 0.903830182,3.32899184 2.06897101,3.18946949 C1.7284344,2.34220312 1.90155701,1.33701329 2.58822235,0.650931339 C2.93155502,0.307948596 3.35457535,0.092841931 3.79775061,0.00619365892 L3.81382794,0.0788664032 C3.50661103,0.15549888 3.21558795,0.313072956 2.97559294,0.55333557 C2.27156874,1.25723632 2.27156874,2.39845462 2.97547644,3.10188952 L2.97547644,3.10188952 Z" id="Shape" fill-rule="nonzero"></path>
                                        <path d="M6.60755628,4.478479 C6.60755628,5.48925905 5.96923945,6.35038448 5.07426776,6.68241973 C4.97034759,6.50260127 4.89951411,6.30147013 4.87050501,6.08659639 C5.51814203,5.83922955 5.97751112,5.21300945 5.97751112,4.478479 C5.97751112,4.42327567 5.97483157,4.36830526 5.96982196,4.31438301 C6.13385739,4.25883029 6.30931005,4.22913229 6.49198586,4.22913229 C6.52635408,4.22913229 6.5607223,4.23076277 6.59462451,4.23239325 C6.60254667,4.31310192 6.60755628,4.39532461 6.60755628,4.478479 L6.60755628,4.478479 Z M4.25665369,2.12907632 C4.79454542,2.12907632 5.29037977,2.30947709 5.68625504,2.61332836 C5.61297501,2.74621234 5.52012257,2.87129331 5.40746472,2.98437862 C5.36703837,3.02455826 5.3253305,3.06217573 5.28234111,3.09734747 C4.99609463,2.88433714 4.64111172,2.75844092 4.25653719,2.75844092 C3.8691666,2.75844092 3.51197014,2.88620054 3.22432563,3.10200598 C3.17888969,3.06566961 3.13520127,3.02618874 3.0931439,2.98437862 C2.98223358,2.87338964 2.89042966,2.75098731 2.81843116,2.61985027 C3.21582096,2.31203927 3.71503388,2.12907632 4.25665369,2.12907632 L4.25665369,2.12907632 Z M2.54325241,4.31857567 C2.53812631,4.37121683 2.53579626,4.42455676 2.53579626,4.478479 C2.53579626,5.20811801 2.98945673,5.83142655 3.63056962,6.08182142 C3.60202652,6.2965787 3.53212506,6.49840861 3.4285544,6.67857646 C2.53882532,6.34386257 1.90598411,5.48529931 1.90598411,4.478479 C1.90598411,4.39532461 1.91017819,4.31275253 1.91903238,4.23157801 C1.948624,4.22994753 1.97821562,4.22913229 2.00873925,4.22913229 C2.19549265,4.22913229 2.37548891,4.26046077 2.54325241,4.31857567 L2.54325241,4.31857567 Z" id="Shape"></path>
                                    </g>
                                </g>
                            </g>
                        </g>
                    </g>
                </g>
            </g>
        </g>
    </g>
</svg>