<?xml version="1.0" encoding="UTF-8"?>
<svg width="30px" height="32px" viewBox="0 0 30 32" version="1.1" xmlns="http://www.w3.org/2000/svg" xmlns:xlink="http://www.w3.org/1999/xlink">
    <title>Rectangle</title>
    <g id="Color---Theme" stroke="none" stroke-width="1" fill="none" fill-rule="evenodd">
        <g id="Mobile_04_Track-and-Trace_b" transform="translate(-35.000000, -276.000000)" fill="#D2E9FF">
            <g id="Group-6" transform="translate(16.000000, 81.000000)">
                <g id="Group-2" transform="translate(18.500000, 195.000000)">
                    <g id="Group-8-Copy" transform="translate(15.500000, 162.500000) rotate(90.000000) translate(-15.500000, -162.500000) translate(-147.000000, 147.500000)">
                        <path d="M6,0 L20.3993356,0 C21.0452378,-3.40694915e-16 21.6513795,0.311931368 22.0268026,0.837523613 L31.727687,14.4187618 C31.9760424,14.7664593 31.9760424,15.2335407 31.727687,15.5812382 L22.0268026,29.1624764 C21.6513795,29.6880686 21.0452378,30 20.3993356,30 L6,30 C2.6862915,30 -1.24827345e-13,27.3137085 -1.24344979e-13,24 L-1.24344979e-13,6 C-1.25638969e-13,2.6862915 2.6862915,6.08718376e-16 6,0 Z" id="Rectangle"></path>
                    </g>
                </g>
            </g>
        </g>
    </g>
</svg>