<?xml version="1.0" encoding="UTF-8"?>
<svg width="30px" height="35px" viewBox="0 0 30 35" version="1.1" xmlns="http://www.w3.org/2000/svg" xmlns:xlink="http://www.w3.org/1999/xlink">
    <title>Rectangle Copy 5</title>
    <g id="Color---Theme" stroke="none" stroke-width="1" fill="none" fill-rule="evenodd">
        <g id="Mobile_04_Track-and-Trace_b" transform="translate(-35.000000, -566.000000)" fill="#D2E9FF">
            <g id="Group-6" transform="translate(16.000000, 81.000000)">
                <g id="Group-2" transform="translate(18.500000, 195.000000)">
                    <g id="Group-8-Copy" transform="translate(15.500000, 162.500000) rotate(90.000000) translate(-15.500000, -162.500000) translate(-147.000000, 147.500000)">
                        <path d="M291.326631,0 L318.891056,0 C322.17655,2.31457004e-15 324.851011,2.64241019 324.89062,5.92766632 L324.999855,14.9879444 C324.999952,14.9959812 324.999952,15.0040188 324.999855,15.0120556 L324.89062,24.0723337 C324.851011,27.3575898 322.17655,30 318.891056,30 L291.326631,30 C290.774347,30 290.326631,29.5522847 290.326631,29 C290.326631,28.7439442 290.424854,28.4976437 290.601057,28.3118561 L302.573546,15.6881439 C302.939447,15.3023403 302.939447,14.6976597 302.573546,14.3118561 L290.601057,1.68814386 C290.221006,1.28742025 290.237764,0.654477082 290.638487,0.274425723 C290.824275,0.0982224701 291.070576,4.70366946e-17 291.326631,0 Z" id="Rectangle-Copy-5"></path>
                    </g>
                </g>
            </g>
        </g>
    </g>
</svg>