<?xml version="1.0" encoding="UTF-8"?>
<svg width="30px" height="35px" viewBox="0 0 30 35" version="1.1" xmlns="http://www.w3.org/2000/svg" xmlns:xlink="http://www.w3.org/1999/xlink">
    <title>last_done</title>
    <g id="Page-1" stroke="none" stroke-width="1" fill="none" fill-rule="evenodd">
        <g id="last_done" transform="translate(0.000000, 0.326629)" fill="#0957A3" fill-rule="nonzero">
            <g id="Group-8-Copy" transform="translate(15.000000, 17.336649) rotate(90.000000) translate(-15.000000, -17.336649) translate(-2.336649, 2.336649)">
                <path d="M1,0 L28.5644268,0 C31.8499208,0 34.5243818,2.64241019 34.5639908,5.92766632 L34.6732985,14.9879444 C34.6732985,14.9959812 34.6732985,15.0040188 34.6732985,15.0120556 L34.5639908,24.0723337 C34.5243818,27.3575898 31.8499208,30 28.5644268,30 L1,30 C0.447717758,30 0,29.5522847 0,29 C0,28.7439442 0.0982247585,28.4976437 0.274427758,28.3118561 L12.2469168,15.6881439 C12.6128178,15.3023403 12.6128178,14.6976597 12.2469168,14.3118561 L0.274427758,1.68814386 C-0.105623242,1.28742025 -0.0888652415,0.654477082 0.311857758,0.274425723 C0.497645758,0.0982224701 0.743946758,0 1,0 Z" id="Rectangle-Copy-5"></path>
            </g>
        </g>
    </g>
</svg>