<?xml version="1.0" encoding="UTF-8"?>
<svg width="30px" height="37px" viewBox="0 0 30 37" version="1.1" xmlns="http://www.w3.org/2000/svg" xmlns:xlink="http://www.w3.org/1999/xlink">
    <title>mid_disable</title>
    <g id="Page-1" stroke="none" stroke-width="1" fill="none" fill-rule="evenodd">
        <g id="mid_disable" transform="translate(0.000000, 0.326629)" fill="#0957A3" fill-rule="nonzero">
            <g id="Group-8-Copy" transform="translate(15.000000, 17.931274) rotate(90.000000) translate(-15.000000, -17.931274) translate(-2.931274, 2.931274)">
                <path d="M1,0 L22.0520918,0 C22.3327068,0 22.6004108,0.117905252 22.7898458,0.324930692 L35.6003028,14.3249307 C35.9499638,14.7070601 35.9499638,15.2929399 35.6003028,15.6750693 L22.7898458,29.6750693 C22.6004108,29.8820947 22.3327068,30 22.0520918,30 L1,30 C0.447717758,30 0,29.5522847 0,29 C0,28.7439442 0.0982247585,28.4976437 0.274427758,28.3118561 L12.2469168,15.6881439 C12.6128178,15.3023403 12.6128178,14.6976597 12.2469168,14.3118561 L0.274427758,1.68814386 C-0.105623242,1.28742025 -0.0888652415,0.654477082 0.311857758,0.274425723 C0.497645758,0.0982224701 0.743946758,0 1,0 Z" id="Rectangle-Copy-5"></path>
            </g>
        </g>
    </g>
</svg>