<?xml version="1.0" encoding="UTF-8"?>
<svg width="30px" height="37px" viewBox="0 0 30 37" version="1.1" xmlns="http://www.w3.org/2000/svg" xmlns:xlink="http://www.w3.org/1999/xlink">
    <title>Rectangle Copy 5</title>
    <g id="Color---Theme" stroke="none" stroke-width="1" fill="none" fill-rule="evenodd">
        <g id="Mobile_04_Track-and-Trace_b" transform="translate(-35.000000, -467.000000)" fill="#EEEEEE">
            <g id="Group-6" transform="translate(16.000000, 81.000000)">
                <g id="Group-2" transform="translate(18.500000, 195.000000)">
                    <g id="Group-8-Copy" transform="translate(15.500000, 162.500000) rotate(90.000000) translate(-15.500000, -162.500000) translate(-147.000000, 147.500000)">
                        <path d="M192.326631,0 L213.378721,0 C213.659336,-1.3815624e-15 213.92704,0.117905252 214.116475,0.324930692 L226.926932,14.3249307 C227.276593,14.7070601 227.276593,15.2929399 226.926932,15.6750693 L214.116475,29.6750693 C213.92704,29.8820947 213.659336,30 213.378721,30 L192.326631,30 C191.774347,30 191.326631,29.5522847 191.326631,29 C191.326631,28.7439442 191.424854,28.4976437 191.601057,28.3118561 L203.573546,15.6881439 C203.939447,15.3023403 203.939447,14.6976597 203.573546,14.3118561 L191.601057,1.68814386 C191.221006,1.28742025 191.237764,0.654477082 191.638487,0.274425723 C191.824275,0.0982224701 192.070576,2.690813e-16 192.326631,0 Z" id="Rectangle-Copy-5"></path>
                    </g>
                </g>
            </g>
        </g>
    </g>
</svg>