<?xml version="1.0" encoding="UTF-8"?>
<svg width="30px" height="33px" viewBox="0 0 30 33" version="1.1" xmlns="http://www.w3.org/2000/svg" xmlns:xlink="http://www.w3.org/1999/xlink">
    <title>Rectangle</title>
    <g id="Color---Theme" stroke="none" stroke-width="1" fill="none" fill-rule="evenodd">
        <g id="Mobile_04_Track-and-Trace_b" transform="translate(-35.000000, -307.000000)" fill="#D2E9FF">
            <g id="Group-6" transform="translate(16.000000, 81.000000)">
                <g id="Group-2" transform="translate(18.500000, 195.000000)">
                    <g id="Group-8-Copy" transform="translate(15.500000, 162.500000) rotate(90.000000) translate(-15.500000, -162.500000) translate(-147.000000, 147.500000)">
                        <path d="M32.0174906,0 L50.5662205,0 C50.8468362,-3.15791924e-15 51.1145398,0.117905252 51.3039749,0.324930692 L63.4967219,13.6498614 C64.1960437,14.4141202 64.1960437,15.5858798 63.4967219,16.3501386 L51.3039749,29.6750693 C51.1145398,29.8820947 50.8468362,30 50.5662205,30 L32.0174906,30 C31.4652059,30 31.0174906,29.5522847 31.0174906,29 C31.0174906,28.7812523 31.0892172,28.5685385 31.2216785,28.3944564 L41.4136905,15 L41.4136905,15 L31.2216785,1.60554357 C30.887246,1.16602866 30.9724322,0.538620328 31.4119471,0.204187848 C31.5860292,0.0717265557 31.7987429,-1.73617353e-15 32.0174906,0 Z" id="Rectangle"></path>
                    </g>
                </g>
            </g>
        </g>
    </g>
</svg>